<svg width="90" height="90" viewBox="0 0 90 90" fill="none" xmlns="http://www.w3.org/2000/svg">
<path d="M13.5 45C13.5 43.8065 13.0259 42.6619 12.182 41.818C11.3381 40.9741 10.1935 40.5 9 40.5H4.5C3.30653 40.5 2.16193 40.9741 1.31802 41.818C0.474106 42.6619 0 43.8065 0 45C0 46.1935 0.474106 47.3381 1.31802 48.182C2.16193 49.0259 3.30653 49.5 4.5 49.5H9C10.1935 49.5 11.3381 49.0259 12.182 48.182C13.0259 47.3381 13.5 46.1935 13.5 45ZM16.38 67.5L13.185 70.695C12.3469 71.5381 11.8764 72.6787 11.8764 73.8675C11.8764 75.0563 12.3469 76.1969 13.185 77.04C14.0281 77.8781 15.1687 78.3486 16.3575 78.3486C17.5463 78.3486 18.6869 77.8781 19.53 77.04L22.725 73.845C23.4622 72.9841 23.8474 71.8768 23.8037 70.7443C23.76 69.6117 23.2905 68.5374 22.489 67.736C21.6876 66.9345 20.6133 66.465 19.4807 66.4213C18.3482 66.3776 17.2409 66.7628 16.38 67.5ZM45 13.5C46.1935 13.5 47.3381 13.0259 48.182 12.182C49.0259 11.3381 49.5 10.1935 49.5 9V4.5C49.5 3.30653 49.0259 2.16193 48.182 1.31802C47.3381 0.474106 46.1935 0 45 0C43.8065 0 42.6619 0.474106 41.818 1.31802C40.9741 2.16193 40.5 3.30653 40.5 4.5V9C40.5 10.1935 40.9741 11.3381 41.818 12.182C42.6619 13.0259 43.8065 13.5 45 13.5ZM70.47 24.03C71.6505 24.025 72.7818 23.5563 73.62 22.725L76.815 19.53C77.2861 19.1266 77.6687 18.6302 77.9388 18.0719C78.2089 17.5136 78.3607 16.9055 78.3846 16.2857C78.4085 15.666 78.3041 15.048 78.0779 14.4705C77.8516 13.8931 77.5085 13.3686 77.0699 12.9301C76.6314 12.4915 76.1069 12.1484 75.5295 11.9221C74.952 11.6959 74.334 11.5915 73.7143 11.6154C73.0945 11.6393 72.4864 11.7911 71.9281 12.0612C71.3698 12.3313 70.8734 12.7139 70.47 13.185L67.5 16.38C66.6619 17.2231 66.1914 18.3637 66.1914 19.5525C66.1914 20.7413 66.6619 21.8819 67.5 22.725C68.2933 23.5141 69.3522 23.9794 70.47 24.03ZM16.47 22.725C17.3082 23.5563 18.4395 24.025 19.62 24.03C20.2122 24.0334 20.7993 23.9199 21.3476 23.696C21.8958 23.472 22.3945 23.1421 22.815 22.725C23.6531 21.8819 24.1236 20.7413 24.1236 19.5525C24.1236 18.3637 23.6531 17.2231 22.815 16.38L19.62 13.185C19.2034 12.7625 18.7076 12.4261 18.161 12.1952C17.6144 11.9643 17.0277 11.8433 16.4343 11.8391C15.841 11.8349 15.2526 11.9476 14.7028 12.1709C14.153 12.3941 13.6525 12.7234 13.23 13.14C12.8075 13.5566 12.4711 14.0524 12.2402 14.599C12.0093 15.1456 11.8883 15.7323 11.8841 16.3257C11.8756 17.524 12.3436 18.6767 13.185 19.53L16.47 22.725ZM85.5 40.5H81C79.8065 40.5 78.6619 40.9741 77.818 41.818C76.9741 42.6619 76.5 43.8065 76.5 45C76.5 46.1935 76.9741 47.3381 77.818 48.182C78.6619 49.0259 79.8065 49.5 81 49.5H85.5C86.6935 49.5 87.8381 49.0259 88.682 48.182C89.5259 47.3381 90 46.1935 90 45C90 43.8065 89.5259 42.6619 88.682 41.818C87.8381 40.9741 86.6935 40.5 85.5 40.5ZM73.62 67.5C72.7651 67.0245 71.7784 66.8405 70.8096 66.9759C69.8407 67.1114 68.9424 67.5588 68.2506 68.2506C67.5588 68.9424 67.1114 69.8407 66.9759 70.8096C66.8405 71.7784 67.0245 72.7651 67.5 73.62L70.695 76.815C71.5381 77.6531 72.6787 78.1236 73.8675 78.1236C75.0563 78.1236 76.1969 77.6531 77.04 76.815C77.8781 75.9719 78.3486 74.8313 78.3486 73.6425C78.3486 72.4537 77.8781 71.3131 77.04 70.47L73.62 67.5ZM45 20.25C40.1049 20.25 35.3198 21.7016 31.2496 24.4211C27.1795 27.1407 24.0073 31.0061 22.134 35.5286C20.2607 40.0511 19.7706 45.0275 20.7256 49.8285C21.6805 54.6295 24.0378 59.0395 27.4991 62.5009C30.9605 65.9622 35.3705 68.3195 40.1715 69.2744C44.9725 70.2294 49.9489 69.7393 54.4714 67.866C58.9939 65.9927 62.8593 62.8205 65.5789 58.7504C68.2984 54.6802 69.75 49.8951 69.75 45C69.7381 38.4395 67.1267 32.1512 62.4878 27.5122C57.8488 22.8733 51.5605 20.2619 45 20.25ZM45 60.75C41.8849 60.75 38.8398 59.8263 36.2498 58.0956C33.6597 56.365 31.641 53.9052 30.4489 51.0273C29.2568 48.1493 28.9449 44.9825 29.5526 41.9273C30.1603 38.8721 31.6604 36.0657 33.8631 33.8631C36.0657 31.6604 38.8721 30.1603 41.9273 29.5526C44.9825 28.9449 48.1493 29.2568 51.0273 30.4489C53.9052 31.641 56.365 33.6597 58.0956 36.2498C59.8263 38.8398 60.75 41.8849 60.75 45C60.75 49.1772 59.0906 53.1832 56.1369 56.1369C53.1832 59.0906 49.1772 60.75 45 60.75ZM45 76.5C43.8065 76.5 42.6619 76.9741 41.818 77.818C40.9741 78.6619 40.5 79.8065 40.5 81V85.5C40.5 86.6935 40.9741 87.8381 41.818 88.682C42.6619 89.5259 43.8065 90 45 90C46.1935 90 47.3381 89.5259 48.182 88.682C49.0259 87.8381 49.5 86.6935 49.5 85.5V81C49.5 79.8065 49.0259 78.6619 48.182 77.818C47.3381 76.9741 46.1935 76.5 45 76.5Z" fill="black"/>
</svg>
