<svg width="90" height="90" viewBox="0 0 90 90" fill="none" xmlns="http://www.w3.org/2000/svg">
<path d="M13.3333 7.5C13.3333 10.3125 12.2222 12.4609 10 13.9453V88.125C10 88.6328 9.83507 89.0723 9.50521 89.4434C9.17535 89.8145 8.78472 90 8.33333 90H5C4.54861 90 4.15799 89.8145 3.82812 89.4434C3.49826 89.0723 3.33333 88.6328 3.33333 88.125V13.9453C1.11111 12.4609 0 10.3125 0 7.5C0 5.42969 0.651042 3.66211 1.95312 2.19727C3.25521 0.732422 4.82639 0 6.66667 0C8.50694 0 10.0781 0.732422 11.3802 2.19727C12.6823 3.66211 13.3333 5.42969 13.3333 7.5ZM90 11.25V55.957C90 56.9336 89.783 57.6855 89.349 58.2129C88.9149 58.7402 88.2292 59.2773 87.2917 59.8242C79.8264 64.3555 73.4201 66.6211 68.0729 66.6211C65.9549 66.6211 63.8108 66.1914 61.6406 65.332C59.4705 64.4727 57.5868 63.5352 55.9896 62.5195C54.3924 61.5039 52.3872 60.5664 49.974 59.707C47.5608 58.8477 45.0868 58.418 42.5521 58.418C35.8854 58.418 27.8299 61.2695 18.3854 66.9727C17.7951 67.3242 17.2222 67.5 16.6667 67.5C15.7639 67.5 14.9826 67.1289 14.3229 66.3867C13.6632 65.6445 13.3333 64.7656 13.3333 63.75V20.2734C13.3333 19.0234 13.8715 17.9492 14.9479 17.0508C15.6771 16.5039 17.0486 15.6641 19.0625 14.5312C27.2569 9.84375 34.566 7.5 40.9896 7.5C44.7049 7.5 48.1771 8.06641 51.4062 9.19922C54.6354 10.332 58.4375 12.0508 62.8125 14.3555C64.1319 15.0977 65.6597 15.4688 67.3958 15.4688C69.2708 15.4688 71.3108 15.0586 73.5156 14.2383C75.7205 13.418 77.6302 12.5 79.2448 11.4844C80.8594 10.4687 82.3872 9.55078 83.8281 8.73047C85.2691 7.91016 86.2153 7.5 86.6667 7.5C87.5694 7.5 88.3507 7.87109 89.0104 8.61328C89.6701 9.35547 90 10.2344 90 11.25Z" fill="black"/>
</svg>
