<svg width="90" height="90" viewBox="0 0 90 90" fill="none" xmlns="http://www.w3.org/2000/svg">
<path d="M83.3333 53.7305V17.6367C77.4653 21.1914 72.1528 22.9688 67.3958 22.9688C64.5486 22.9688 62.0312 22.3438 59.8437 21.0938C56.3715 19.1797 53.1771 17.6855 50.2604 16.6113C47.3437 15.5371 44.2535 15 40.9896 15C34.9826 15 27.9861 17.4805 20 22.4414V57.5391C28.5069 53.125 36.0243 50.918 42.5521 50.918C44.4618 50.918 46.2587 51.0645 47.9427 51.3574C49.6267 51.6504 51.3281 52.1582 53.0469 52.8809C54.7656 53.6035 56.1024 54.209 57.0573 54.6973C58.0122 55.1855 59.4444 55.957 61.3542 57.0117L62.8125 57.832C64.3403 58.6914 66.0937 59.1211 68.0729 59.1211C72.2396 59.1211 77.3264 57.3242 83.3333 53.7305ZM13.3333 7.5C13.3333 8.86719 13.0295 10.1172 12.4219 11.25C11.8142 12.3828 11.0069 13.2813 10 13.9453V88.125C10 88.6719 9.84375 89.1211 9.53125 89.4727C9.21875 89.8242 8.81944 90 8.33333 90H5C4.51389 90 4.11458 89.8242 3.80208 89.4727C3.48958 89.1211 3.33333 88.6719 3.33333 88.125V13.9453C2.32639 13.2813 1.5191 12.3828 0.911458 11.25C0.303819 10.1172 0 8.86719 0 7.5C0 5.42969 0.651042 3.66211 1.95312 2.19727C3.25521 0.732422 4.82639 0 6.66667 0C8.50694 0 10.0781 0.732422 11.3802 2.19727C12.6823 3.66211 13.3333 5.42969 13.3333 7.5ZM90 11.25V55.957C90 57.4805 89.3924 58.5938 88.1771 59.2969C87.8299 59.4922 87.5347 59.668 87.2917 59.8242C79.7222 64.3555 73.316 66.6211 68.0729 66.6211C65.0174 66.6211 62.2743 65.9375 59.8437 64.5703L58.3854 63.75C56.1632 62.4609 54.4444 61.5234 53.2292 60.9375C52.0139 60.3516 50.434 59.7852 48.4896 59.2383C46.5451 58.6914 44.566 58.418 42.5521 58.418C39.0104 58.418 34.9219 59.2773 30.2865 60.9961C25.651 62.7148 21.684 64.707 18.3854 66.9727C17.8646 67.3242 17.2917 67.5 16.6667 67.5C16.1111 67.5 15.5556 67.3438 15 67.0312C13.8889 66.2891 13.3333 65.1953 13.3333 63.75V20.2734C13.3333 18.9062 13.8715 17.832 14.9479 17.0508C16.1632 16.2305 17.526 15.4004 19.0365 14.5605C20.5469 13.7207 22.526 12.7051 24.974 11.5137C27.4219 10.3223 30.0694 9.35547 32.9167 8.61328C35.7639 7.87109 38.4549 7.5 40.9896 7.5C44.8785 7.5 48.5069 8.10547 51.875 9.31641C55.2431 10.5273 58.8715 12.207 62.7604 14.3555C64.0799 15.0977 65.625 15.4688 67.3958 15.4688C71.6319 15.4688 77.0139 13.2812 83.5417 8.90625C84.3056 8.4375 84.8437 8.10547 85.1562 7.91016C86.2326 7.28516 87.309 7.32422 88.3854 8.02734C89.4618 8.80859 90 9.88281 90 11.25Z" fill="black"/>
</svg>
