<svg width="90" height="90" viewBox="0 0 90 90" fill="none" xmlns="http://www.w3.org/2000/svg">
<path fill-rule="evenodd" clip-rule="evenodd" d="M22.5906 28.0224C21.3525 28.0284 20.1627 27.5419 19.2826 26.6711C18.4025 25.8002 17.9041 24.6165 17.8969 23.3784C17.8969 20.8178 19.9985 18.7431 22.5906 18.7431C25.1826 18.7431 27.2842 20.8178 27.2842 23.3784C27.2842 25.9434 25.1826 28.0224 22.5906 28.0224ZM87.2526 47.9125L71.7047 32.5489C45.2756 6.43025 51.4587 12.6856 41.212 1.8853C40.33 1.01228 39.1374 0 37.8909 0H9.38272C4.2031 0 0 5.20628 0 10.3274V38.4981C0 39.7312 0.495013 40.9101 1.37253 41.7831C19.7825 59.9726 6.52517 46.8686 47.4176 87.2841C49.1884 89.0249 51.5721 90 54.0552 90C56.5384 90 58.9222 89.0249 60.6929 87.2841L87.2526 61.0349C88.1227 60.1786 88.8137 59.1572 89.2854 58.0312C89.7571 56.9051 90 55.6968 90 54.4759C90 53.2551 89.7571 52.0467 89.2854 50.9207C88.8137 49.7946 88.1227 48.7689 87.2526 47.9125Z" fill="black"/>
</svg>
