<svg width="90" height="90" viewBox="0 0 90 90" fill="none" xmlns="http://www.w3.org/2000/svg">
<path d="M76.5 15H63V10C63 7.34784 62.0518 4.8043 60.364 2.92893C58.6761 1.05357 56.3869 0 54 0H36C33.6131 0 31.3239 1.05357 29.636 2.92893C27.9482 4.8043 27 7.34784 27 10V15H13.5C9.91958 15 6.4858 16.5804 3.95406 19.3934C1.42232 22.2064 0 26.0218 0 30V75C0 78.9782 1.42232 82.7936 3.95406 85.6066C6.4858 88.4196 9.91958 90 13.5 90H76.5C80.0804 90 83.5142 88.4196 86.0459 85.6066C88.5777 82.7936 90 78.9782 90 75V30C90 26.0218 88.5777 22.2064 86.0459 19.3934C83.5142 16.5804 80.0804 15 76.5 15ZM36 10H54V15H36V10ZM81 75C81 76.3261 80.5259 77.5979 79.682 78.5355C78.8381 79.4732 77.6935 80 76.5 80H13.5C12.3065 80 11.1619 79.4732 10.318 78.5355C9.47411 77.5979 9 76.3261 9 75V50H27V55C27 56.3261 27.4741 57.5979 28.318 58.5355C29.1619 59.4732 30.3065 60 31.5 60C32.6935 60 33.8381 59.4732 34.682 58.5355C35.5259 57.5979 36 56.3261 36 55V50H54V55C54 56.3261 54.4741 57.5979 55.318 58.5355C56.1619 59.4732 57.3065 60 58.5 60C59.6935 60 60.8381 59.4732 61.682 58.5355C62.5259 57.5979 63 56.3261 63 55V50H81V75ZM81 40H9V30C9 28.6739 9.47411 27.4021 10.318 26.4645C11.1619 25.5268 12.3065 25 13.5 25H76.5C77.6935 25 78.8381 25.5268 79.682 26.4645C80.5259 27.4021 81 28.6739 81 30V40Z" fill="black"/>
</svg>
