<svg width="90" height="90" viewBox="0 0 90 90" fill="none" xmlns="http://www.w3.org/2000/svg">
<path d="M24.7533 18.0024C23.4181 18.0024 22.1129 18.3984 21.0027 19.1402C19.8926 19.882 19.0273 20.9363 18.5163 22.1699C18.0054 23.4034 17.8717 24.7608 18.1322 26.0704C18.3926 27.3799 19.0356 28.5828 19.9797 29.5269C20.9239 30.471 22.1267 31.114 23.4363 31.3745C24.7458 31.635 26.1032 31.5013 27.3368 30.9903C28.5703 30.4794 29.6247 29.6141 30.3665 28.5039C31.1083 27.3937 31.5042 26.0885 31.5042 24.7533C31.5042 22.9629 30.793 21.2458 29.5269 19.9797C28.2609 18.7137 26.5438 18.0024 24.7533 18.0024ZM86.0514 39.2002L48.2014 1.30525C47.7809 0.888125 47.2821 0.558119 46.7338 0.334148C46.1854 0.110178 45.5983 -0.00334924 45.006 7.52242e-05H4.50067C3.30703 7.52242e-05 2.16229 0.474243 1.31827 1.31827C0.474243 2.16229 7.52242e-05 3.30703 7.52242e-05 4.50067V45.006C-0.00334924 45.5983 0.110178 46.1854 0.334148 46.7338C0.558119 47.2821 0.888125 47.7809 1.30525 48.2014L39.2002 86.0514C41.7318 88.5798 45.1635 90 48.7415 90C52.3195 90 55.7511 88.5798 58.2827 86.0514L86.0514 58.5078C88.5798 55.9762 90 52.5445 90 48.9665C90 45.3885 88.5798 41.9568 86.0514 39.4252V39.2002ZM79.7055 51.8919L51.8919 79.6605C51.0486 80.4988 49.908 80.9693 48.719 80.9693C47.53 80.9693 46.3893 80.4988 45.5461 79.6605L9.00126 43.1607V9.00126H43.1607L79.7055 45.5461C80.1226 45.9666 80.4527 46.4653 80.6766 47.0137C80.9006 47.562 81.0141 48.1492 81.0107 48.7415C81.0057 49.9222 80.537 51.0536 79.7055 51.8919Z" fill="black"/>
</svg>
